{
    "asset" : {
        "generator" : "Khronos glTF Blender I/O v3.4.50",
        "version" : "2.0"
    },
    "extensionsUsed" : [
        "KHR_materials_specular",
        "KHR_materials_ior"
    ],
    "scene" : 0,
    "scenes" : [
        {
            "name" : "Scene",
            "nodes" : [
                7
            ]
        }
    ],
    "nodes" : [
        {
            "mesh" : 0,
            "name" : "inside",
            "scale" : [
                0.025161918252706528,
                0.025161918252706528,
                0.025161918252706528
            ]
        },
        {
            "mesh" : 1,
            "name" : "laces",
            "scale" : [
                0.025161918252706528,
                0.025161918252706528,
                0.025161918252706528
            ]
        },
        {
            "mesh" : 2,
            "name" : "outside_1",
            "scale" : [
                0.02539999969303608,
                0.02539999969303608,
                0.02539999969303608
            ]
        },
        {
            "mesh" : 3,
            "name" : "outside_2",
            "scale" : [
                0.02539999969303608,
                0.02539999969303608,
                0.02539999969303608
            ]
        },
        {
            "mesh" : 4,
            "name" : "outside_3",
            "scale" : [
                0.02539999969303608,
                0.02539999969303608,
                0.02539999969303608
            ]
        },
        {
            "mesh" : 5,
            "name" : "sole_bottom",
            "scale" : [
                0.02539999969303608,
                0.02539999969303608,
                0.02539999969303608
            ]
        },
        {
            "mesh" : 6,
            "name" : "sole_top",
            "scale" : [
                0.02539999969303608,
                0.02539999969303608,
                0.02539999969303608
            ]
        },
        {
            "children" : [
                0,
                1,
                2,
                3,
                4,
                5,
                6
            ],
            "name" : "shoe"
        }
    ],
    "materials" : [
        {
            "doubleSided" : true,
            "extensions" : {
                "KHR_materials_specular" : {
                    "specularColorFactor" : [
                        2.371357614441398,
                        2.371357614441398,
                        2.371357614441398
                    ]
                },
                "KHR_materials_ior" : {
                    "ior" : 1.4500000476837158
                }
            },
            "name" : "inside",
            "normalTexture" : {
                "index" : 0
            },
            "occlusionTexture" : {
                "index" : 1
            },
            "pbrMetallicRoughness" : {
                "metallicRoughnessTexture" : {
                    "index" : 2
                }
            }
        },
        {
            "doubleSided" : true,
            "extensions" : {
                "KHR_materials_specular" : {
                    "specularColorFactor" : [
                        2.371357614441398,
                        2.371357614441398,
                        2.371357614441398
                    ]
                },
                "KHR_materials_ior" : {
                    "ior" : 1.4500000476837158
                }
            },
            "name" : "mat_laces",
            "normalTexture" : {
                "index" : 3
            },
            "occlusionTexture" : {
                "index" : 4,
                "texCoord" : 1
            },
            "pbrMetallicRoughness" : {
                "metallicRoughnessTexture" : {
                    "index" : 5
                }
            }
        },
        {
            "doubleSided" : true,
            "extensions" : {
                "KHR_materials_specular" : {
                    "specularColorFactor" : [
                        2.371357614441398,
                        2.371357614441398,
                        2.371357614441398
                    ]
                },
                "KHR_materials_ior" : {
                    "ior" : 1.4500000476837158
                }
            },
            "name" : "mat_outside_1",
            "normalTexture" : {
                "index" : 6
            },
            "occlusionTexture" : {
                "index" : 7
            },
            "pbrMetallicRoughness" : {
                "baseColorFactor" : [
                    0.9808297157287598,
                    1,
                    0.9618753790855408,
                    1
                ],
                "metallicRoughnessTexture" : {
                    "index" : 8
                }
            }
        },
        {
            "doubleSided" : true,
            "extensions" : {
                "KHR_materials_specular" : {
                    "specularColorFactor" : [
                        2.371357614441398,
                        2.371357614441398,
                        2.371357614441398
                    ]
                },
                "KHR_materials_ior" : {
                    "ior" : 1.4500000476837158
                }
            },
            "name" : "mat_outside_2",
            "normalTexture" : {
                "index" : 9
            },
            "occlusionTexture" : {
                "index" : 10
            },
            "pbrMetallicRoughness" : {
                "metallicRoughnessTexture" : {
                    "index" : 11
                }
            }
        },
        {
            "doubleSided" : true,
            "extensions" : {
                "KHR_materials_specular" : {
                    "specularColorFactor" : [
                        2.371357614441398,
                        2.371357614441398,
                        2.371357614441398
                    ]
                },
                "KHR_materials_ior" : {
                    "ior" : 1.4500000476837158
                }
            },
            "name" : "mat_outside_3",
            "normalTexture" : {
                "index" : 12
            },
            "occlusionTexture" : {
                "index" : 13
            },
            "pbrMetallicRoughness" : {
                "metallicRoughnessTexture" : {
                    "index" : 14
                }
            }
        },
        {
            "doubleSided" : true,
            "extensions" : {
                "KHR_materials_specular" : {
                    "specularColorFactor" : [
                        2.371357614441398,
                        2.371357614441398,
                        2.371357614441398
                    ]
                },
                "KHR_materials_ior" : {
                    "ior" : 1.4500000476837158
                }
            },
            "name" : "mat_sole_bottom",
            "normalTexture" : {
                "index" : 15
            },
            "occlusionTexture" : {
                "index" : 16
            },
            "pbrMetallicRoughness" : {
                "metallicRoughnessTexture" : {
                    "index" : 17
                }
            }
        },
        {
            "doubleSided" : true,
            "extensions" : {
                "KHR_materials_specular" : {
                    "specularColorFactor" : [
                        2.371357614441398,
                        2.371357614441398,
                        2.371357614441398
                    ]
                },
                "KHR_materials_ior" : {
                    "ior" : 1.4500000476837158
                }
            },
            "name" : "mat_sole_top",
            "normalTexture" : {
                "index" : 18
            },
            "occlusionTexture" : {
                "index" : 19
            },
            "pbrMetallicRoughness" : {
                "metallicRoughnessTexture" : {
                    "index" : 20
                }
            }
        }
    ],
    "meshes" : [
        {
            "name" : "inside",
            "primitives" : [
                {
                    "attributes" : {
                        "POSITION" : 0,
                        "TEXCOORD_0" : 1,
                        "NORMAL" : 2
                    },
                    "indices" : 3,
                    "material" : 0
                }
            ]
        },
        {
            "name" : "laces",
            "primitives" : [
                {
                    "attributes" : {
                        "POSITION" : 4,
                        "TEXCOORD_0" : 5,
                        "TEXCOORD_1" : 6,
                        "NORMAL" : 7
                    },
                    "indices" : 8,
                    "material" : 1
                }
            ]
        },
        {
            "name" : "outside_1",
            "primitives" : [
                {
                    "attributes" : {
                        "POSITION" : 9,
                        "TEXCOORD_0" : 10,
                        "NORMAL" : 11
                    },
                    "indices" : 12,
                    "material" : 2
                }
            ]
        },
        {
            "name" : "outside_2",
            "primitives" : [
                {
                    "attributes" : {
                        "POSITION" : 13,
                        "TEXCOORD_0" : 14,
                        "NORMAL" : 15
                    },
                    "indices" : 16,
                    "material" : 3
                }
            ]
        },
        {
            "name" : "outside_3",
            "primitives" : [
                {
                    "attributes" : {
                        "POSITION" : 17,
                        "TEXCOORD_0" : 18,
                        "NORMAL" : 19
                    },
                    "indices" : 20,
                    "material" : 4
                }
            ]
        },
        {
            "name" : "sole_bottom",
            "primitives" : [
                {
                    "attributes" : {
                        "POSITION" : 21,
                        "TEXCOORD_0" : 22,
                        "NORMAL" : 23
                    },
                    "indices" : 24,
                    "material" : 5
                }
            ]
        },
        {
            "name" : "sole_top",
            "primitives" : [
                {
                    "attributes" : {
                        "POSITION" : 25,
                        "TEXCOORD_0" : 26,
                        "NORMAL" : 27
                    },
                    "indices" : 28,
                    "material" : 6
                }
            ]
        }
    ],
    "textures" : [
        {
            "sampler" : 0,
            "source" : 0
        },
        {
            "sampler" : 0,
            "source" : 1
        },
        {
            "sampler" : 0,
            "source" : 2
        },
        {
            "sampler" : 0,
            "source" : 0
        },
        {
            "sampler" : 0,
            "source" : 3
        },
        {
            "sampler" : 0,
            "source" : 2
        },
        {
            "sampler" : 0,
            "source" : 4
        },
        {
            "sampler" : 0,
            "source" : 5
        },
        {
            "sampler" : 0,
            "source" : 6
        },
        {
            "sampler" : 0,
            "source" : 4
        },
        {
            "sampler" : 0,
            "source" : 5
        },
        {
            "sampler" : 0,
            "source" : 6
        },
        {
            "sampler" : 0,
            "source" : 7
        },
        {
            "sampler" : 0,
            "source" : 5
        },
        {
            "sampler" : 0,
            "source" : 6
        },
        {
            "sampler" : 0,
            "source" : 7
        },
        {
            "sampler" : 0,
            "source" : 8
        },
        {
            "sampler" : 0,
            "source" : 9
        },
        {
            "sampler" : 0,
            "source" : 7
        },
        {
            "sampler" : 0,
            "source" : 8
        },
        {
            "sampler" : 0,
            "source" : 9
        }
    ],
    "images" : [
        {
            "mimeType" : "image/jpeg",
            "name" : "1002_Normal_color",
            "uri" : "1002_Normal_color.jpg"
        },
        {
            "mimeType" : "image/jpeg",
            "name" : "inside_Bake1_PBR_Ambient Occlusion",
            "uri" : "inside_Bake1_PBR_Ambient%20Occlusion.jpg"
        },
        {
            "mimeType" : "image/jpeg",
            "name" : "1002_Metallic_color-1002_Roughness_color_no_logo",
            "uri" : "1002_Metallic_color-1002_Roughness_color_no_logo.jpg"
        },
        {
            "mimeType" : "image/jpeg",
            "name" : "laces_Bake1_PBR_Ambient Occlusion",
            "uri" : "laces_Bake1_PBR_Ambient%20Occlusion.jpg"
        },
        {
            "mimeType" : "image/jpeg",
            "name" : "1003_Normal_color_r",
            "uri" : "1003_Normal_color_r.jpg"
        },
        {
            "mimeType" : "image/jpeg",
            "name" : "outside_Bake1_PBR_Ambient Occlusion",
            "uri" : "outside_Bake1_PBR_Ambient%20Occlusion.jpg"
        },
        {
            "mimeType" : "image/jpeg",
            "name" : "1003_Metallic_color_r-1003_Roughness_color_r",
            "uri" : "1003_Metallic_color_r-1003_Roughness_color_r.jpg"
        },
        {
            "mimeType" : "image/jpeg",
            "name" : "1001_Normal_color_r_no_logo",
            "uri" : "1001_Normal_color_r_no_logo.jpg"
        },
        {
            "mimeType" : "image/jpeg",
            "name" : "sole_Bake1_PBR_Ambient Occlusion",
            "uri" : "sole_Bake1_PBR_Ambient%20Occlusion.jpg"
        },
        {
            "mimeType" : "image/jpeg",
            "name" : "1001_Metallic_color_r-1001_Roughness_color_r",
            "uri" : "1001_Metallic_color_r-1001_Roughness_color_r.jpg"
        }
    ],
    "accessors" : [
        {
            "bufferView" : 0,
            "componentType" : 5126,
            "count" : 4047,
            "max" : [
                1.9127485752105713,
                4.615365505218506,
                7.021025657653809
            ],
            "min" : [
                -2.3449857234954834,
                -0.38254499435424805,
                -4.269758224487305
            ],
            "type" : "VEC3"
        },
        {
            "bufferView" : 1,
            "componentType" : 5126,
            "count" : 4047,
            "type" : "VEC2"
        },
        {
            "bufferView" : 2,
            "componentType" : 5126,
            "count" : 4047,
            "type" : "VEC3"
        },
        {
            "bufferView" : 3,
            "componentType" : 5123,
            "count" : 19542,
            "type" : "SCALAR"
        },
        {
            "bufferView" : 4,
            "componentType" : 5126,
            "count" : 7032,
            "max" : [
                2.300217866897583,
                5.023042678833008,
                4.316310405731201
            ],
            "min" : [
                -2.8821794986724854,
                1.1505584716796875,
                -0.021175384521484375
            ],
            "type" : "VEC3"
        },
        {
            "bufferView" : 5,
            "componentType" : 5126,
            "count" : 7032,
            "type" : "VEC2"
        },
        {
            "bufferView" : 6,
            "componentType" : 5126,
            "count" : 7032,
            "type" : "VEC2"
        },
        {
            "bufferView" : 7,
            "componentType" : 5126,
            "count" : 7032,
            "type" : "VEC3"
        },
        {
            "bufferView" : 8,
            "componentType" : 5123,
            "count" : 21780,
            "type" : "SCALAR"
        },
        {
            "bufferView" : 9,
            "componentType" : 5126,
            "count" : 8030,
            "max" : [
                2.1661221981048584,
                3.4048142433166504,
                7.183448314666748
            ],
            "min" : [
                -2.4549338817596436,
                -0.30632054805755615,
                -4.292489528656006
            ],
            "type" : "VEC3"
        },
        {
            "bufferView" : 10,
            "componentType" : 5126,
            "count" : 8030,
            "type" : "VEC2"
        },
        {
            "bufferView" : 11,
            "componentType" : 5126,
            "count" : 8030,
            "type" : "VEC3"
        },
        {
            "bufferView" : 12,
            "componentType" : 5123,
            "count" : 34566,
            "type" : "SCALAR"
        },
        {
            "bufferView" : 13,
            "componentType" : 5126,
            "count" : 47789,
            "max" : [
                2.1025688648223877,
                4.084011554718018,
                6.5640058517456055
            ],
            "min" : [
                -2.0846774578094482,
                -0.08782041072845459,
                -4.415452003479004
            ],
            "type" : "VEC3"
        },
        {
            "bufferView" : 14,
            "componentType" : 5126,
            "count" : 47789,
            "type" : "VEC2"
        },
        {
            "bufferView" : 15,
            "componentType" : 5126,
            "count" : 47789,
            "type" : "VEC3"
        },
        {
            "bufferView" : 16,
            "componentType" : 5123,
            "count" : 189816,
            "type" : "SCALAR"
        },
        {
            "bufferView" : 17,
            "componentType" : 5126,
            "count" : 20344,
            "max" : [
                2.0775256156921387,
                3.724154233932495,
                6.974720478057861
            ],
            "min" : [
                -2.3869237899780273,
                -0.2707083225250244,
                -4.078790187835693
            ],
            "type" : "VEC3"
        },
        {
            "bufferView" : 18,
            "componentType" : 5126,
            "count" : 20344,
            "type" : "VEC2"
        },
        {
            "bufferView" : 19,
            "componentType" : 5126,
            "count" : 20344,
            "type" : "VEC3"
        },
        {
            "bufferView" : 20,
            "componentType" : 5123,
            "count" : 81990,
            "type" : "SCALAR"
        },
        {
            "bufferView" : 21,
            "componentType" : 5126,
            "count" : 20315,
            "max" : [
                2.6547646522521973,
                1.4128309488296509,
                7.305683612823486
            ],
            "min" : [
                -2.9246864318847656,
                -1.1484323740005493,
                -5.425256252288818
            ],
            "type" : "VEC3"
        },
        {
            "bufferView" : 22,
            "componentType" : 5126,
            "count" : 20315,
            "type" : "VEC2"
        },
        {
            "bufferView" : 23,
            "componentType" : 5126,
            "count" : 20315,
            "type" : "VEC3"
        },
        {
            "bufferView" : 24,
            "componentType" : 5123,
            "count" : 102156,
            "type" : "SCALAR"
        },
        {
            "bufferView" : 25,
            "componentType" : 5126,
            "count" : 15720,
            "max" : [
                2.246960163116455,
                5.0591349601745605,
                7.200356960296631
            ],
            "min" : [
                -2.696380138397217,
                -0.9505446553230286,
                -4.781702518463135
            ],
            "type" : "VEC3"
        },
        {
            "bufferView" : 26,
            "componentType" : 5126,
            "count" : 15720,
            "type" : "VEC2"
        },
        {
            "bufferView" : 27,
            "componentType" : 5126,
            "count" : 15720,
            "type" : "VEC3"
        },
        {
            "bufferView" : 28,
            "componentType" : 5123,
            "count" : 67434,
            "type" : "SCALAR"
        }
    ],
    "bufferViews" : [
        {
            "buffer" : 0,
            "byteLength" : 48564,
            "byteOffset" : 0,
            "target" : 34962
        },
        {
            "buffer" : 0,
            "byteLength" : 32376,
            "byteOffset" : 48564,
            "target" : 34962
        },
        {
            "buffer" : 0,
            "byteLength" : 48564,
            "byteOffset" : 80940,
            "target" : 34962
        },
        {
            "buffer" : 0,
            "byteLength" : 39084,
            "byteOffset" : 129504,
            "target" : 34963
        },
        {
            "buffer" : 0,
            "byteLength" : 84384,
            "byteOffset" : 168588,
            "target" : 34962
        },
        {
            "buffer" : 0,
            "byteLength" : 56256,
            "byteOffset" : 252972,
            "target" : 34962
        },
        {
            "buffer" : 0,
            "byteLength" : 56256,
            "byteOffset" : 309228,
            "target" : 34962
        },
        {
            "buffer" : 0,
            "byteLength" : 84384,
            "byteOffset" : 365484,
            "target" : 34962
        },
        {
            "buffer" : 0,
            "byteLength" : 43560,
            "byteOffset" : 449868,
            "target" : 34963
        },
        {
            "buffer" : 0,
            "byteLength" : 96360,
            "byteOffset" : 493428,
            "target" : 34962
        },
        {
            "buffer" : 0,
            "byteLength" : 64240,
            "byteOffset" : 589788,
            "target" : 34962
        },
        {
            "buffer" : 0,
            "byteLength" : 96360,
            "byteOffset" : 654028,
            "target" : 34962
        },
        {
            "buffer" : 0,
            "byteLength" : 69132,
            "byteOffset" : 750388,
            "target" : 34963
        },
        {
            "buffer" : 0,
            "byteLength" : 573468,
            "byteOffset" : 819520,
            "target" : 34962
        },
        {
            "buffer" : 0,
            "byteLength" : 382312,
            "byteOffset" : 1392988,
            "target" : 34962
        },
        {
            "buffer" : 0,
            "byteLength" : 573468,
            "byteOffset" : 1775300,
            "target" : 34962
        },
        {
            "buffer" : 0,
            "byteLength" : 379632,
            "byteOffset" : 2348768,
            "target" : 34963
        },
        {
            "buffer" : 0,
            "byteLength" : 244128,
            "byteOffset" : 2728400,
            "target" : 34962
        },
        {
            "buffer" : 0,
            "byteLength" : 162752,
            "byteOffset" : 2972528,
            "target" : 34962
        },
        {
            "buffer" : 0,
            "byteLength" : 244128,
            "byteOffset" : 3135280,
            "target" : 34962
        },
        {
            "buffer" : 0,
            "byteLength" : 163980,
            "byteOffset" : 3379408,
            "target" : 34963
        },
        {
            "buffer" : 0,
            "byteLength" : 243780,
            "byteOffset" : 3543388,
            "target" : 34962
        },
        {
            "buffer" : 0,
            "byteLength" : 162520,
            "byteOffset" : 3787168,
            "target" : 34962
        },
        {
            "buffer" : 0,
            "byteLength" : 243780,
            "byteOffset" : 3949688,
            "target" : 34962
        },
        {
            "buffer" : 0,
            "byteLength" : 204312,
            "byteOffset" : 4193468,
            "target" : 34963
        },
        {
            "buffer" : 0,
            "byteLength" : 188640,
            "byteOffset" : 4397780,
            "target" : 34962
        },
        {
            "buffer" : 0,
            "byteLength" : 125760,
            "byteOffset" : 4586420,
            "target" : 34962
        },
        {
            "buffer" : 0,
            "byteLength" : 188640,
            "byteOffset" : 4712180,
            "target" : 34962
        },
        {
            "buffer" : 0,
            "byteLength" : 134868,
            "byteOffset" : 4900820,
            "target" : 34963
        }
    ],
    "samplers" : [
        {
            "magFilter" : 9729,
            "minFilter" : 9987
        }
    ],
    "buffers" : [
        {
            "byteLength" : 5035688,
            "uri" : "untitled.bin"
        }
    ]
}
